<?xml version="1.0" encoding="UTF-8"?>
<svg width="200px" height="124px" viewBox="0 0 200 124" version="1.1" xmlns="http://www.w3.org/2000/svg" xmlns:xlink="http://www.w3.org/1999/xlink">
    <!-- Generator: Sketch 58 (84663) - https://sketch.com -->
    <title>Group Copy 2</title>
    <desc>Created with Sketch.</desc>
    <defs>
        <linearGradient x1="50%" y1="0%" x2="50%" y2="100%" id="linearGradient-1">
            <stop stop-color="#FFD587" offset="0%"></stop>
            <stop stop-color="#FFC674" offset="34.1474415%"></stop>
            <stop stop-color="#FFAA4F" offset="100%"></stop>
        </linearGradient>
        <linearGradient x1="50%" y1="0%" x2="50%" y2="100%" id="linearGradient-2">
            <stop stop-color="#FF6F6F" offset="0%"></stop>
            <stop stop-color="#EB0000" offset="100%"></stop>
        </linearGradient>
        <linearGradient x1="50%" y1="0%" x2="50%" y2="100%" id="linearGradient-3">
            <stop stop-color="#00B4DF" offset="0%"></stop>
            <stop stop-color="#007DBB" offset="100%"></stop>
        </linearGradient>
    </defs>
    <g id="HiFi-Mockups" stroke="none" stroke-width="1" fill="none" fill-rule="evenodd">
        <g id="Option-5" transform="translate(-1030.000000, -90.000000)">
            <g id="Group-Copy-2" transform="translate(1030.000000, 90.000000)">
                <g id="Group-2" transform="translate(6.000000, 0.000000)">
                    <path d="M0,70.5438638 C14.5151983,23.5146213 29.6110046,0 45.2874187,0 C68.80204,0 62.8910521,32.2911568 110.605811,49.6419782 C129.765873,56.6092734 157.34475,63.5765686 193.342442,70.5438638 L0,70.5438638 Z" id="Path-4" fill="url(#linearGradient-1)"></path>
                    <path d="M0,70.5438638 C23.0226649,60.0431702 41.6021187,51.6243552 55.7383615,45.2874187 C80.9948066,33.965564 82.7366304,13.0636785 100.154868,14.8055023 C117.573106,16.5473261 114.274854,41.8711876 161.989613,59.2220091 C181.149675,66.1893043 191.600618,69.9632559 193.342442,70.5438638 L0,70.5438638 Z" id="Path-4" fill="url(#linearGradient-2)"></path>
                    <path d="M0,70.5438638 C55.1577536,60.6735289 90.2845335,51.674106 105.38034,43.5455949 C128.024049,31.3528284 127.153137,25.2563717 150.667758,25.2563717 C166.344173,25.2563717 180.569067,40.3522024 193.342442,70.5438638 L0,70.5438638 Z" id="Path-4" fill="url(#linearGradient-3)"></path>
                </g>
                <path d="M22,97.543251 C21.232133,92.1368821 16.966205,89 11.432687,89 C4.91191136,89 0,93.6340304 0,101.5 C0,109.354087 4.85096953,114 11.432687,114 C17.3684211,114 21.3052632,110.257129 22,105.611217 L17.4415512,105.587452 C16.8686981,108.439163 14.4797784,110.043251 11.4936288,110.043251 C7.44709141,110.043251 4.54626039,107.084601 4.54626039,101.5 C4.54626039,96.0104563 7.42271468,92.956749 11.5058172,92.956749 C14.5407202,92.956749 16.9174515,94.6321293 17.4415512,97.543251 L22,97.543251 Z M28.2067925,114 C31.1169811,114 32.8558491,112.647133 33.6528302,111.10271 L33.7977358,111.10271 L33.7977358,113.628859 L38,113.628859 L38,101.321367 C38,96.4606175 34.0030189,95 30.4649057,95 C26.5645283,95 23.5698113,96.7240076 22.6037736,100.076244 L26.685283,100.650914 C27.12,99.3938248 28.3516981,98.3163201 30.4890566,98.3163201 C32.4295324,98.3163201 33.5303406,99.2583503 33.6223949,100.922381 L33.6286792,101.225583 C33.6286792,102.194007 32.8324435,102.445425 30.9388472,102.672701 L29.04,102.877757 C25.4415094,103.26087 22,104.326402 22,108.468809 C22,112.084436 24.6686792,114 28.2067925,114 Z M28.9479675,111 C27.2292683,111 26,110.167002 26,108.561368 C26,106.8833 27.3772358,106.183099 29.2211382,105.905433 L30.2654868,105.750863 C31.3400831,105.581945 32.6076965,105.336419 33,105 L33,107.185111 C33,109.249501 31.4292683,111 28.9479675,111 Z M43.2967133,103.010283 C43.2967133,100.299486 44.8872094,98.7365039 47.1542598,98.7365039 C49.3738327,98.7365039 50.7032026,100.238432 50.7032026,102.741645 L50.7032026,114 L55,114 L55,102.057841 C55.0117853,97.5642674 52.5192168,95 48.7566253,95 C46.0266693,95 44.1513082,96.3431877 43.3204521,98.4312339 L43.1068033,98.4312339 L43.1068033,95.2442159 L39,95.2442159 L39,114 L43.2967133,114 L43.2967133,103.010283 Z M73,95 L68.3614458,95 L64.0963855,109.113932 L63.9036145,109.113932 L59.6506024,95 L55,95 L61.5903614,114 L66.4096386,114 L73,95 Z M78.2067925,114 C81.1169811,114 82.8558491,112.647133 83.6528302,111.10271 L83.7977358,111.10271 L83.7977358,113.628859 L88,113.628859 L88,101.321367 C88,96.4606175 84.0030189,95 80.4649057,95 C76.5645283,95 73.5698113,96.7240076 72.6037736,100.076244 L76.685283,100.650914 C77.12,99.3938248 78.3516981,98.3163201 80.4890566,98.3163201 C82.4295324,98.3163201 83.5303406,99.2583503 83.6223949,100.922381 L83.6286792,101.225583 C83.6286792,102.332353 82.5886979,102.502625 80.0592427,102.770647 L79.04,102.877757 C75.4415094,103.26087 72,104.326402 72,108.468809 C72,112.084436 74.6686792,114 78.2067925,114 Z M78.9479675,111 C77.2292683,111 76,110.167002 76,108.561368 C76,106.8833 77.3772358,106.183099 79.2211382,105.905433 L80.2654868,105.750863 C81.3400831,105.581945 82.6076965,105.336419 83,105 L83,107.185111 C83,109.249501 81.4292683,111 78.9479675,111 Z M103.598479,100.103405 C102.990114,96.9886507 100.459316,95 96.0790875,95 C91.5771863,95 88.5110266,97.1803279 88.5231939,100.582598 C88.5110266,103.266078 90.1901141,105.039092 93.7794677,105.769861 L96.9673004,106.428752 C98.6828897,106.800126 99.4859316,107.482976 99.4859316,108.525221 C99.4859316,109.783102 98.0988593,110.729508 96.0060837,110.729508 C93.9863118,110.729508 92.6722433,109.866961 92.295057,108.213745 L88,108.621059 C88.5475285,111.999369 91.4311787,114 96.018251,114 C100.690494,114 103.987833,111.616015 104,108.129887 C103.987833,105.506305 102.272243,103.901009 98.7437262,103.14628 L95.5558935,102.47541 C93.6577947,102.056116 92.9034221,101.409206 92.9155894,100.343001 C92.9034221,99.0970996 94.3026616,98.2345523 96.139924,98.2345523 C98.1718631,98.2345523 99.2425856,99.3247163 99.58327,100.534678 L103.598479,100.103405 Z M110.599615,92.5129897 L105.528752,92.5129897 L110.410087,101.490703 L98,124 L103,124 L113.237839,104.893932 L113.428742,104.893932 L118.86948,113.981406 L124,113.981406 L116.351945,101.490703 L123.880686,89 L118.833685,89 L113.428742,98.148464 L113.237839,98.148464 L110.599615,92.5129897 Z M124,121 L128.244138,121 L128.244138,111.02439 L128.42,111.02439 L128.587564,111.348208 C129.312977,112.673474 130.721538,114.304878 133.578621,114.304878 C137.822759,114.304878 141,110.804878 141,104.634146 C141,98.3902439 137.728966,95 133.566897,95 C130.389655,95 129.064828,96.9878049 128.42,98.3414634 L128.173793,98.3414634 L128.173793,95.2439024 L124,95.2439024 L124,121 Z M128,104.957533 C128,101.341759 129.586777,99 132.475207,99 C135.46281,99 137,101.487361 137,104.957533 C137,108.451972 135.438017,111 132.475207,111 C129.61157,111 128,108.573306 128,104.957533 Z M142,114 L146.545662,114 L146.545662,102.987805 C146.545662,100.609756 148.391553,98.9268293 150.890411,98.9268293 C151.656393,98.9268293 152.610731,99.0609756 153,99.1829268 L153,95.1219512 C152.585616,95.0487805 151.869863,95 151.36758,95 C149.157534,95 147.311644,96.2195122 146.608447,98.3902439 L146.407534,98.3902439 L146.407534,95.2682927 L142,95.2682927 L142,114 Z M159.874738,114 C164.13366,114 167.060182,111.903531 167.821554,108.704918 L163.80056,108.249685 C163.217635,109.807062 161.790063,110.62169 159.93422,110.62169 C157.150455,110.62169 155.306508,108.776797 155.270819,105.626103 L168,105.626103 L168,104.296343 C168,97.8392182 164.145556,95 159.648705,95 C154.414276,95 151,98.869483 151,104.547919 C151,110.322194 154.36669,114 159.874738,114 Z M156,103 C156.137119,100.828255 157.944598,99 160.637119,99 C163.229917,99 164.975069,100.684211 165,103 L156,103 Z M183.598479,100.103405 C182.990114,96.9886507 180.459316,95 176.079087,95 C171.577186,95 168.511027,97.1803279 168.523194,100.582598 C168.511027,103.266078 170.190114,105.039092 173.779468,105.769861 L176.9673,106.428752 C178.68289,106.800126 179.485932,107.482976 179.485932,108.525221 C179.485932,109.783102 178.098859,110.729508 176.006084,110.729508 C173.986312,110.729508 172.672243,109.866961 172.295057,108.213745 L168,108.621059 C168.547529,111.999369 171.431179,114 176.018251,114 C180.690494,114 183.987833,111.616015 184,108.129887 C183.987833,105.506305 182.272243,103.901009 178.743726,103.14628 L175.555894,102.47541 C173.657795,102.056116 172.903422,101.409206 172.915589,100.343001 C172.903422,99.0970996 174.302662,98.2345523 176.139924,98.2345523 C178.171863,98.2345523 179.242586,99.3247163 179.58327,100.534678 L183.598479,100.103405 Z M199.598479,100.103405 L195.58327,100.534678 C195.242586,99.3247163 194.171863,98.2345523 192.139924,98.2345523 C190.302662,98.2345523 188.903422,99.0970996 188.915589,100.343001 C188.903422,101.409206 189.657795,102.056116 191.555894,102.47541 L194.743726,103.14628 C198.272243,103.901009 199.987833,105.506305 200,108.129887 C199.987833,111.616015 196.690494,114 192.018251,114 C187.431179,114 184.547529,111.999369 184,108.621059 L188.295057,108.213745 C188.672243,109.866961 189.986312,110.729508 192.006084,110.729508 C194.098859,110.729508 195.485932,109.783102 195.485932,108.525221 C195.485932,107.482976 194.68289,106.800126 192.9673,106.428752 L189.779468,105.769861 C186.190114,105.039092 184.511027,103.266078 184.523194,100.582598 C184.511027,97.1803279 187.577186,95 192.079087,95 C196.459316,95 198.990114,96.9886507 199.598479,100.103405 Z" id="CanvasXpress-Copy" fill="#1C202B" fill-rule="nonzero"></path>
            </g>
        </g>
    </g>
</svg>