<svg height="98" viewBox="0 0 267 98" width="267" xmlns="http://www.w3.org/2000/svg" xmlns:xlink="http://www.w3.org/1999/xlink"><linearGradient id="a" x1="50%" x2="50%" y1="0%" y2="100%"><stop offset="0" stop-color="#ffd587"/><stop offset=".341474415" stop-color="#ffc674"/><stop offset="1" stop-color="#ffaa4f"/></linearGradient><linearGradient id="b" x1="50%" x2="50%" y1="0%" y2="100%"><stop offset="0" stop-color="#ff6f6f"/><stop offset="1" stop-color="#eb0000"/></linearGradient><linearGradient id="c" x1="50%" x2="50%" y1="0%" y2="100%"><stop offset="0" stop-color="#00b4df"/><stop offset="1" stop-color="#007dbb"/></linearGradient><g fill="none" fill-rule="evenodd"><path d="m0 97.1999942c20-64.7999961 40.7999988-97.1999942 62.3999963-97.1999942 32.399998 0 24.2554486 44.4928883 89.9999947 68.3999959 26.399998 9.5999995 64.399996 19.1999989 113.999993 28.7999983z" fill="url(#a)"/><path d="m0 97.1999942c31.7221481-14.4685491 57.3221466-26.0685484 76.7999954-34.7999979 34.7999976-15.5999991 37.2000046-44.3999974 61.2000046-41.9999975 24 2.3999998 19.455441 37.2928887 85.199987 61.1999963 26.399998 9.5999995 40.799997 14.7999992 43.199997 15.5999991z" fill="url(#b)"/><path d="m0 97.1999942c76-13.5999992 124.399997-25.9999984 145.199991-37.1999978 31.199998-16.799999 29.999999-25.2000996 62.399997-25.2000996 21.599998 0 41.199997 20.8000325 58.799996 62.4000974z" fill="url(#c)"/></g></svg>