<svg height="124" viewBox="0 0 200 124" width="200" xmlns="http://www.w3.org/2000/svg" xmlns:xlink="http://www.w3.org/1999/xlink"><linearGradient id="a" x1="50%" x2="50%" y1="0%" y2="100%"><stop offset="0" stop-color="#ffd587"/><stop offset=".341474415" stop-color="#ffc674"/><stop offset="1" stop-color="#ffaa4f"/></linearGradient><linearGradient id="b" x1="50%" x2="50%" y1="0%" y2="100%"><stop offset="0" stop-color="#ff6f6f"/><stop offset="1" stop-color="#eb0000"/></linearGradient><linearGradient id="c" x1="50%" x2="50%" y1="0%" y2="100%"><stop offset="0" stop-color="#00b4df"/><stop offset="1" stop-color="#007dbb"/></linearGradient><g fill="none" fill-rule="evenodd"><g transform="translate(6)"><path d="m0 70.5438638c14.5151983-47.0292425 29.6110046-70.5438638 45.2874187-70.5438638 23.5146213 0 17.6036334 32.2911568 65.3183923 49.6419782 19.160062 6.9672952 46.738939 13.9345904 82.736631 20.9018856z" fill="url(#a)"/><path d="m0 70.5438638c23.0226649-10.5006936 41.6021187-18.9195086 55.7383615-25.2564451 25.2564451-11.3218547 26.9982689-32.2237402 44.4165065-30.4819164 17.418238 1.7418238 14.119986 27.0656853 61.834745 44.4165068 19.160062 6.9672952 29.611005 10.7412468 31.352829 11.3218547z" fill="url(#b)"/><path d="m0 70.5438638c55.1577536-9.8703349 90.2845335-18.8697578 105.38034-26.9982689 22.643709-12.1927665 21.772797-18.2892232 45.287418-18.2892232 15.676415 0 29.901309 15.0958307 42.674684 45.2874921z" fill="url(#c)"/></g><path d="m22 97.543251c-.767867-5.4063689-5.033795-8.543251-10.567313-8.543251-6.52077564 0-11.432687 4.6340304-11.432687 12.5 0 7.854087 4.85096953 12.5 11.432687 12.5 5.9357341 0 9.8725762-3.742871 10.567313-8.388783l-4.5584488-.023765c-.5728531 2.851711-2.9617728 4.455799-5.9479224 4.455799-4.04653739 0-6.94736841-2.95865-6.94736841-8.543251 0-5.4895437 2.87645429-8.543251 6.95955681-8.543251 3.034903 0 5.4116343 1.6753803 5.935734 4.586502zm6.2067925 16.456749c2.9101886 0 4.6490566-1.352867 5.4460377-2.89729h.1449056v2.526149h4.2022642v-12.307492c0-4.8607495-3.9969811-6.321367-7.5350943-6.321367-3.9003774 0-6.8950944 1.7240076-7.8611321 5.076244l4.0815094.57467c.434717-1.2570892 1.6664151-2.3345939 3.8037736-2.3345939 1.9404758 0 3.041284.9420302 3.1333383 2.6060609l.0062843.303202c0 .968424-.7962357 1.219842-2.689832 1.447118l-1.8988472.205056c-3.5984906.383113-7.04 1.448645-7.04 5.591052 0 3.615627 2.6686792 5.531191 6.2067925 5.531191zm.741175-3c-1.7186992 0-2.9479675-.832998-2.9479675-2.438632 0-1.678068 1.3772358-2.378269 3.2211382-2.655935l1.0443486-.15457c1.0745963-.168918 2.3422097-.414444 2.7345132-.750863v2.185111c0 2.06439-1.5707317 3.814889-4.0520325 3.814889zm14.3487458-7.989717c0-2.710797 1.5904961-4.2737791 3.8575465-4.2737791 2.2195729 0 3.5489428 1.5019281 3.5489428 4.0051411v11.258355h4.2967974v-11.942159c.0117853-4.4935736-2.4807832-7.057841-6.2433747-7.057841-2.729956 0-4.6053171 1.3431877-5.4361732 3.4312339h-.2136488v-3.187018h-4.1068033v18.7557841h4.2967133zm29.7032867-8.010283h-4.6385542l-4.2650603 14.113932h-.192771l-4.2530121-14.113932h-4.6506024l6.5903614 19h4.8192772zm5.2067925 19c2.9101886 0 4.6490566-1.352867 5.4460377-2.89729h.1449056v2.526149h4.2022642v-12.307492c0-4.8607495-3.9969811-6.321367-7.5350943-6.321367-3.9003774 0-6.8950944 1.7240076-7.8611321 5.076244l4.0815094.57467c.434717-1.2570892 1.6664151-2.3345939 3.8037736-2.3345939 1.9404758 0 3.041284.9420302 3.1333383 2.6060609l.0062843.303202c0 1.10677-1.0399813 1.277042-3.5694365 1.545064l-1.0192427.10711c-3.5984906.383113-7.04 1.448645-7.04 5.591052 0 3.615627 2.6686792 5.531191 6.2067925 5.531191zm.741175-3c-1.7186992 0-2.9479675-.832998-2.9479675-2.438632 0-1.678068 1.3772358-2.378269 3.2211382-2.655935l1.0443486-.15457c1.0745963-.168918 2.3422097-.414444 2.7345132-.750863v2.185111c0 2.06439-1.5707317 3.814889-4.0520325 3.814889zm24.6505115-10.896595c-.608365-3.1147543-3.139163-5.103405-7.5193915-5.103405-4.5019012 0-7.5680609 2.1803279-7.5558936 5.582598-.0121673 2.68348 1.6669202 4.456494 5.2562738 5.187263l3.1878327.658891c1.7155893.371374 2.5186312 1.054224 2.5186312 2.096469 0 1.257881-1.3870723 2.204287-3.4798479 2.204287-2.0197719 0-3.3338404-.862547-3.7110267-2.515763l-4.295057.407314c.5475285 3.37831 3.4311787 5.378941 8.018251 5.378941 4.672243 0 7.969582-2.383985 7.981749-5.870113-.012167-2.623582-1.727757-4.228878-5.2562738-4.983607l-3.1878327-.67087c-1.8980988-.419294-2.6524714-1.066204-2.6403041-2.132409-.0121673-1.2459014 1.3870722-2.1084487 3.2243346-2.1084487 2.0319391 0 3.1026616 1.090164 3.443346 2.3001257zm7.001136-7.5904153h-5.070863l4.881335 8.9777133-12.410087 22.509297h5l10.237839-19.106068h.190903l5.440738 9.087474h5.13052l-7.648055-12.490703 7.528741-12.490703h-5.047001l-5.404943 9.148464h-.190903zm13.400385 28.4870103h4.244138v-9.97561h.175862l.167564.323818c.725413 1.325266 2.133974 2.95667 4.991057 2.95667 4.244138 0 7.421379-3.5 7.421379-9.670732 0-6.2439021-3.271034-9.634146-7.433103-9.634146-3.177242 0-4.502069 1.9878049-5.146897 3.3414634h-.246207v-3.097561h-4.173793zm4-16.042467c0-3.615774 1.586777-5.957533 4.475207-5.957533 2.987603 0 4.524793 2.487361 4.524793 5.957533 0 3.494439-1.561983 6.042467-4.524793 6.042467-2.863637 0-4.475207-2.426694-4.475207-6.042467zm14 9.042467h4.545662v-11.012195c0-2.378049 1.845891-4.0609757 4.344749-4.0609757.765982 0 1.72032.1341463 2.109589.2560975v-4.0609756c-.414384-.0731707-1.130137-.1219512-1.63242-.1219512-2.210046 0-4.055936 1.2195122-4.759133 3.3902439h-.200913v-3.1219512h-4.407534zm17.874738 0c4.258922 0 7.185444-2.096469 7.946816-5.295082l-4.020994-.455233c-.582925 1.557377-2.010497 2.372005-3.86634 2.372005-2.783765 0-4.627712-1.844893-4.663401-4.995587h12.729181v-1.32976c0-6.4571248-3.854444-9.296343-8.351295-9.296343-5.234429 0-8.648705 3.869483-8.648705 9.547919 0 5.774275 3.36669 9.452081 8.874738 9.452081zm-3.874738-11c.137119-2.171745 1.944598-4 4.637119-4 2.592798 0 4.33795 1.684211 4.362881 4zm27.598479-2.896595c-.608365-3.1147543-3.139163-5.103405-7.519392-5.103405-4.501901 0-7.56806 2.1803279-7.555893 5.582598-.012167 2.68348 1.66692 4.456494 5.256274 5.187263l3.187832.658891c1.71559.371374 2.518632 1.054224 2.518632 2.096469 0 1.257881-1.387073 2.204287-3.479848 2.204287-2.019772 0-3.333841-.862547-3.711027-2.515763l-4.295057.407314c.547529 3.37831 3.431179 5.378941 8.018251 5.378941 4.672243 0 7.969582-2.383985 7.981749-5.870113-.012167-2.623582-1.727757-4.228878-5.256274-4.983607l-3.187832-.67087c-1.898099-.419294-2.652472-1.066204-2.640305-2.132409-.012167-1.2459014 1.387073-2.1084487 3.224335-2.1084487 2.031939 0 3.102662 1.090164 3.443346 2.3001257zm16 0-4.015209.431273c-.340684-1.2099617-1.411407-2.3001257-3.443346-2.3001257-1.837262 0-3.236502.8625473-3.224335 2.1084487-.012167 1.066205.742206 1.713115 2.640305 2.132409l3.187832.67087c3.528517.754729 5.244107 2.360025 5.256274 4.983607-.012167 3.486128-3.309506 5.870113-7.981749 5.870113-4.587072 0-7.470722-2.000631-8.018251-5.378941l4.295057-.407314c.377186 1.653216 1.691255 2.515763 3.711027 2.515763 2.092775 0 3.479848-.946406 3.479848-2.204287 0-1.042245-.803042-1.725095-2.518632-2.096469l-3.187832-.658891c-3.589354-.730769-5.268441-2.503783-5.256274-5.187263-.012167-3.4022701 3.053992-5.582598 7.555893-5.582598 4.380229 0 6.911027 1.9886507 7.519392 5.103405z" fill="#1c202b" fill-rule="nonzero"/></g></svg>